<svg id="Layer_1" data-name="Layer 1" xmlns="http://www.w3.org/2000/svg" viewBox="0 0 1468.71 1449.24"><defs><style>.cls-1{fill:#fff;}</style></defs><title>shutterstock_521367346 [Converted]_w</title><polygon class="cls-1" points="1111.71 652.54 1234 653.36 1234 796.44 1113.46 796 1111.71 652.54"/><polygon class="cls-1" points="1335.65 653.85 1213 653.36 1213 655.44 1172.87 654.92 1172.83 654.13 1146 654.05 1146 654.58 1058 653.44 1058 796 1146 796.42 1146 797.09 1187.99 797.06 1190 797.07 1190 797.06 1258 797.01 1258 796.91 1335.28 797.22 1333.46 1316.02 134.4 1311.18 136 931.99 3.35 931.46 1.3 1443.34 1465.89 1449.24 1468.71 655.01 1335.65 653.85"/><polygon class="cls-1" points="3.71 0 0.76 654.44 0 654.44 0 793.44 0.14 793.44 0.13 794.34 53.55 794.81 53.59 796 394 796.44 394 653.36 330 653.2 330 652.3 209 652.33 209 652.43 132.87 652.08 135.51 133.29 1334.86 138.7 1333.22 517.89 1465.94 518.49 1468.27 6.61 3.71 0"/><path class="cls-1" d="M1793.5,2070.55c41,21,104,42,169,42,70,0,107-29,107-73,0-42-32-66-113-95-112-39-185-101-185-199,0-115,96-203,255-203,76,0,132,16,172,34l-34,123c-27-13-75-32-141-32s-98,30-98,65c0,43,38,62,125,95,119,44,175,106,175,201,0,113-87,209-272,209-77,0-153-20-191-41Z" transform="translate(-1263 -1165.56)"/></svg>